<svg xmlns="http://www.w3.org/2000/svg" width="168" height="53" viewBox="0 0 168 53"><g><g><g><path fill="#fff" d="M82.845 29.61c-.962 2.116-2.308 3.847-4.039 5-1.923 1.347-4.423 2.116-6.923 2.116-3.27 0-6.346-1.346-8.461-3.461-2.116-2.116-3.462-5.193-3.462-8.462 0-3.27 1.346-6.346 3.462-8.461 2.115-2.116 5.192-3.462 8.461-3.462 3.27 0 6.346 1.346 8.462 3.462 2.115 2.115 3.461 4.807 3.461 8.076v2.885H67.652v-4.808h10.962c-.385-.961-.962-1.923-1.73-2.5-1.347-1.346-3.078-2.115-5.193-2.115-1.923 0-3.846.77-5.193 2.115-1.346 1.347-2.115 3.077-2.115 5.193 0 1.923.77 3.846 2.115 5.192 1.347 1.346 3.077 2.115 5.193 2.115 1.538 0 3.077-.577 4.23-1.346.385-.384.962-.769 1.347-1.154h5.577z"/></g><g><path fill="#fff" d="M32.15 43.785h1.96l1.959 6.123 1.715-6.123h1.714l1.715 6.123 1.96-6.123h1.959l-2.695 8.818h-1.96l-1.714-5.879-1.714 5.879h-1.96zm14.206 8.818v-8.818h6.359V45.5h-4.402v1.959h3.913v1.47h-4.158v1.96h4.647v1.714zm7.839 0v-8.818h1.959v7.103h4.409v1.715zm7.593 0v-8.818h1.96v7.103h4.408v1.715zm7.593 0V44.03h1.714l3.92 5.878V44.03h1.714v8.818h-1.96l-3.919-5.879v5.634zm8.573 0v-8.818h6.378V45.5h-4.416v1.959h3.925v1.47h-3.925v1.96h4.661v1.714zm8.817-2.205c.98.49 1.715.735 2.695.735.98 0 1.47-.49 1.47-.98 0-1.714-4.654-.49-4.654-3.919 0-1.47 1.224-2.694 3.184-2.694 1.224 0 2.204.245 3.184.735l-.735 1.47c-.735-.245-1.714-.49-2.45-.49-.979 0-1.469.49-1.469.98 0 1.714 4.654.49 4.654 3.918 0 1.47-1.225 2.695-3.43 2.695-1.224 0-2.693-.49-3.428-.98zm7.839 0c.98.49 1.714.735 2.694.735s1.47-.49 1.47-.98c0-1.714-4.654-.49-4.654-3.919 0-1.47 1.224-2.694 3.184-2.694 1.225 0 2.204.245 3.184.735l-.735 1.47c-.735-.245-1.714-.49-2.45-.49-.979 0-1.469.49-1.469.98 0 1.714 4.654.49 4.654 3.918 0 1.47-1.225 2.695-3.43 2.695-1.224 0-2.693-.49-3.428-.98zm24.493-4.898h-2.939v-1.715h7.838V45.5h-2.939v7.103h-1.96zm11.758-1.715h1.959v3.43h3.43v-3.43h1.959v8.818h-1.96v-3.674h-3.429v3.674h-1.96zm8.572 4.409c0-2.45 1.96-4.41 4.654-4.654 2.695 0 4.654 1.96 4.654 4.654s-1.96 4.654-4.654 4.654-4.654-1.96-4.654-4.654zm1.96 0c0 1.96 1.225 3.184 2.694 2.94 1.715 0 2.695-1.226 2.695-2.94 0-1.715-1.225-2.94-2.695-2.94-1.714 0-2.694 1.225-2.694 2.94zm8.083 4.409v-8.818h1.957l2.692 3.674 2.691-3.674h1.958v8.818h-1.713v-6.124l-2.692 3.92-2.691-3.92v6.124zm11.022-8.818h6.369V45.5h-4.41v1.959h3.92v1.47h-3.92v1.96h4.41v1.714h-6.369zm-50.457 0h2.204l3.184 8.818h-1.96l-.489-1.715h-3.43l-.49 1.715h-1.959zm.245 5.878h2.449l-1.225-3.674z"/></g><g><path fill="#fff" d="M32.077 36.918V9.611h4.808v22.307h3.653c6.154 0 10-3.076 11.731-7.115.577-1.538.962-3.27.962-5s-.385-3.461-.962-5c-1.73-4.038-5.577-7.115-11.73-7.115H29l3.27-4.808h8.46c8.27 0 13.655 4.423 16.155 10 .961 2.115 1.346 4.615 1.346 6.923s-.385 4.615-1.346 6.923c-2.308 5.577-7.693 10-16.154 10h-8.654z"/></g><g><path fill="#fff" d="M86.12 2.88h4.808v33.462H86.12z"/></g><g><path fill="#fff" d="M115.923 13.65v11.73c0 5.385-2.885 8.847-6.538 10.578-1.347.577-2.885.961-4.423.961-1.539 0-3.077-.384-4.424-.961-3.653-1.539-6.538-5-6.538-10.577V13.65h4.808v11.73c0 3.27 1.538 5.193 3.654 5.962.769.385 1.73.577 2.5.577.961 0 1.73-.192 2.5-.577 2.115-.769 3.653-2.884 3.653-5.961V13.65z"/></g><g><path fill="#fff" d="M117.27 36.54l7.885-13.27c1.346 1.154 2.692 1.923 4.23 2.308l-6.538 10.961z"/></g><g><path fill="#fff" d="M136.31 23.27l8.655 13.27h-5.77l-7.115-10.962c1.346-.385 2.885-1.154 4.23-2.308"/></g><g><path fill="#fff" d="M124.768 13.652l3.27 3.461c1.346 1.539 2.307 2.115 2.692 1.923.77-.192 1.73-1.154 2.885-2.5L149.192.19l3.461 3.27-15.577 16.345c-1.923 1.923-3.461 3.462-5.577 3.847-2.307.384-4.423-.577-7.115-3.462l-6.154-6.538z"/></g><g><path fill="#fff" d="M18.81 9.62h4.808v11.538H18.81z"/></g><g><path fill="#fff" d="M23.615 36.926h-4.808V28.08H.922l-.192-2.5V24.811l.577-.77L15.537 3.08h5.77L7.653 23.272h20.192v4.808h-4.23z"/></g><g><path fill="#fff" d="M166.305 29.61c-.962 2.116-2.308 3.847-4.039 5-1.923 1.347-4.423 2.116-6.923 2.116-3.27 0-6.346-1.346-8.461-3.461-2.116-2.116-3.462-5.193-3.462-8.462 0-3.27 1.346-6.346 3.462-8.461 2.115-2.116 5.192-3.462 8.461-3.462 3.27 0 6.346 1.346 8.462 3.462 3.077 3.076 3.653 6.73 3.461 10.769h-16.154v-4.808h10.962c-.385-.961-.962-1.923-1.73-2.5-1.347-1.346-3.078-2.115-5.193-2.115-1.923 0-3.846.769-5.193 2.115-1.346 1.346-2.115 3.077-2.115 5.192 0 1.923.77 3.847 2.115 5.193 1.347 1.346 3.077 2.115 5.193 2.115 1.538 0 3.077-.577 4.23-1.346.385-.385.962-.77 1.347-1.154h5.577z"/></g></g></g></svg>