<svg xmlns="http://www.w3.org/2000/svg" width="298" height="99" viewBox="0 0 298 99"><defs><linearGradient id="1ypwb" x1="42.58" x2="73.14" y1="1.32" y2="85.28" gradientUnits="userSpaceOnUse"><stop offset="0" stop-color="#75c6d8"/><stop offset="1" stop-color="#007c9b"/></linearGradient><clipPath id="1ypwa"><path d="M3.371 49.454l-.029.006c-1.9-9.159.21-19.319 8.431-28.31C26.49 5.05 47.045 2.645 57.987 2.645c.244 0 .489.013.733.015-11.165.155-30.881 2.888-45.144 18.49-8.124 8.885-10.28 18.91-8.495 27.983l-.036.007.033.166c0 .48-.389.869-.868.869a.856.856 0 0 1-.839-.72m51.563-29.978c.237 0 .46.204.424.48l-.092.714-35.924 32.684a2.915 2.915 0 0 1-1.964.76c-.32 0-.624-.068-.917-.166.394-.126.768-.31 1.079-.594L54.652 19.59a.417.417 0 0 1 .282-.112m25.291 18.73c.238 0 .462.204.423.482l-.101.738L56.986 61.24a2.885 2.885 0 0 1-1.968.777h-.005c-.308 0-.605-.064-.891-.158.389-.13.753-.332 1.061-.62L79.94 38.322a.415.415 0 0 1 .285-.115m2.29-4.802a.81.81 0 0 0-.555.223L53.771 59.729a.826.826 0 0 1-1.38-.713L58 15.705a.828.828 0 0 0-1.377-.718l-40.48 36.85a.842.842 0 0 1-.57.218.807.807 0 0 1-.687-.37c-5.544-8.759-1.05-21.1 6.989-28.167C27.73 18.371 40.363 10.213 57.9 10.213c7.282 0 15.406 1.407 24.248 5.017 28.73 11.732 24.362 32.401 19.086 41.444-7.077 12.137-18.475 14.865-22.017 15.434a.822.822 0 0 1-.937-.933l5.06-36.829a.828.828 0 0 0-.824-.942m24.188 4.802c.061.16.107.331.163.495 1.906 5.514.883 13.364-2.615 19.904-7.594 12.185-18.546 14.41-22.054 14.972 0 0 13.564-3.452 20.8-15.834.467-.83.907-1.672 1.302-2.528l.05-.112c.146-.322.292-.663.441-1.025 1.348-3.272 2.717-8.11 2.279-13.644a19.22 19.22 0 0 0-.366-2.228m-38.89 46.756c.026 0 .051-.002.078-.004 27.377-2.498 45.915-21.553 47.155-37.835C117.002 21.443 93.222 5.435 71.1 1.666A78.5 78.5 0 0 0 57.987.57c-16.808 0-35.082 5.328-47.745 19.18-15.74 17.214-10.144 38.267 2.42 49.778a.813.813 0 0 0 .555.214.843.843 0 0 0 .599-.248l30.668-30.902a.803.803 0 0 1 .58-.247c.462 0 .902.396.825.943l-5.867 41.753a.827.827 0 0 0 .824.943c.189 0 .382-.065.547-.214l28.935-26.018a.818.818 0 0 1 .551-.216c.473 0 .913.411.817.963C70.62 62.694 67.734 79.347 66.99 84a.836.836 0 0 0 .825.962"/></clipPath></defs><g><g><g><g/><g clip-path="url(#1ypwa)"><path fill="url(#1ypwb)" d="M3.371 49.454l-.029.006c-1.9-9.159.21-19.319 8.431-28.31C26.49 5.05 47.045 2.645 57.987 2.645c.244 0 .489.013.733.015-11.165.155-30.881 2.888-45.144 18.49-8.124 8.885-10.28 18.91-8.495 27.983l-.036.007.033.166c0 .48-.389.869-.868.869a.856.856 0 0 1-.839-.72m51.563-29.978c.237 0 .46.204.424.48l-.092.714-35.924 32.684a2.915 2.915 0 0 1-1.964.76c-.32 0-.624-.068-.917-.166.394-.126.768-.31 1.079-.594L54.652 19.59a.417.417 0 0 1 .282-.112m25.291 18.73c.238 0 .462.204.423.482l-.101.738L56.986 61.24a2.885 2.885 0 0 1-1.968.777h-.005c-.308 0-.605-.064-.891-.158.389-.13.753-.332 1.061-.62L79.94 38.322a.415.415 0 0 1 .285-.115m2.29-4.802a.81.81 0 0 0-.555.223L53.771 59.729a.826.826 0 0 1-1.38-.713L58 15.705a.828.828 0 0 0-1.377-.718l-40.48 36.85a.842.842 0 0 1-.57.218.807.807 0 0 1-.687-.37c-5.544-8.759-1.05-21.1 6.989-28.167C27.73 18.371 40.363 10.213 57.9 10.213c7.282 0 15.406 1.407 24.248 5.017 28.73 11.732 24.362 32.401 19.086 41.444-7.077 12.137-18.475 14.865-22.017 15.434a.822.822 0 0 1-.937-.933l5.06-36.829a.828.828 0 0 0-.824-.942m24.188 4.802c.061.16.107.331.163.495 1.906 5.514.883 13.364-2.615 19.904-7.594 12.185-18.546 14.41-22.054 14.972 0 0 13.564-3.452 20.8-15.834.467-.83.907-1.672 1.302-2.528l.05-.112c.146-.322.292-.663.441-1.025 1.348-3.272 2.717-8.11 2.279-13.644a19.22 19.22 0 0 0-.366-2.228m-38.89 46.756c.026 0 .051-.002.078-.004 27.377-2.498 45.915-21.553 47.155-37.835C117.002 21.443 93.222 5.435 71.1 1.666A78.5 78.5 0 0 0 57.987.57c-16.808 0-35.082 5.328-47.745 19.18-15.74 17.214-10.144 38.267 2.42 49.778a.813.813 0 0 0 .555.214.843.843 0 0 0 .599-.248l30.668-30.902a.803.803 0 0 1 .58-.247c.462 0 .902.396.825.943l-5.867 41.753a.827.827 0 0 0 .824.943c.189 0 .382-.065.547-.214l28.935-26.018a.818.818 0 0 1 .551-.216c.473 0 .913.411.817.963C70.62 62.694 67.734 79.347 66.99 84a.836.836 0 0 0 .825.962"/></g></g><g><path fill="#fff" d="M177.562.6h-2.205c-.497 0-1.085.364-1.307.807l-14.66 29.92-14.838-29.92c-.222-.444-.81-.807-1.307-.807h-2.205l-3.17 38.137h4.365l2.21-27.676 13.403 27.11c.224.443.814.806 1.31.806h.046c.496 0 1.083-.364 1.305-.808l13.407-27.228 2.21 27.796h4.664L177.562.6"/></g><g><path fill="#fff" d="M205.414 32.101c0 2.569 1.435 4.004 3.168 4.304l-2.929 2.989c-1.853-.42-3.944-2.034-4.303-4.543-1.136 3.167-4.185 4.543-7.474 4.543-5.259 0-8.666-3.766-8.666-8.19 0-5.26 4.245-8.07 8.847-8.488l6.753-.66v-2.15c0-2.87-1.912-4.901-5.857-4.901-2.69 0-5.44.836-7.292 2.09l-.738-2.95a1.105 1.105 0 0 1 .611-1.233s3.183-1.37 6.12-1.79c.227-.034.463-.062.711-.081a9.76 9.76 0 0 1 .828-.041c5.917 0 10.22 3.346 10.22 9.443zm-4.604-6.218l-5.798.54c-3.585.359-5.38 2.392-5.38 4.845 0 2.335 1.854 4.189 4.664 4.189 3.347 0 6.514-2.512 6.514-6.522z"/></g><g><path fill="#fff" d="M220.366 22.599c-2.81-1.017-4.304-1.972-4.304-4.126 0-2.03 1.673-3.466 4.185-3.466 2.69 0 4.662.895 5.858 1.793l.956-3.765c-1.076-.66-3.825-1.735-6.755-1.735-4.962 0-8.547 2.99-8.547 7.354 0 4.244 2.868 6.575 7.95 8.366 2.809 1.017 4.482 2.332 4.482 4.544 0 2.272-2.091 3.766-4.9 3.766-3.17 0-6.159-1.373-8.131-3.107l.599 4.78c1.791 1.257 4.243 2.093 7.47 2.093 5.98 0 9.386-3.288 9.386-7.71 0-4.484-3.048-6.934-8.249-8.787"/></g><g><path fill="#fff" d="M240.745 11.65V3.64l-3.563 1.855c-.441.23-.801.823-.801 1.32v4.836H231v3.588h5.38v16.258c0 4.902 3.526 7.532 7.951 7.532 1.135 0 2.271-.18 2.99-.54l.418-3.585c-.658.3-1.615.478-2.632.478-2.689 0-4.362-1.136-4.362-4.303v-15.84h8.966l.836-3.588h-9.802"/></g><g><path fill="#fff" d="M265.49 11c7.472 0 11.656 5.259 11.656 10.401 0 .777-.061 1.433-.18 1.972l-2.509 2.572h-17.635c0 4.421 3.706 9.563 10.401 9.563 3.346 0 5.917-.957 7.89-2.332l-.538 4.364c-1.912 1.077-4.364 1.854-7.89 1.854-7.771 0-14.405-5.799-14.405-14.167 0-8.908 6.812-14.227 13.21-14.227zm7.173 10.52c0-3.168-2.512-6.695-6.934-6.695-4.066 0-7.891 3.406-8.61 7.532h15.484c.06-.239.06-.538.06-.837z"/></g><g><path fill="#fff" d="M286.594 17.577h-.061V11.66h-3.52a.906.906 0 0 0-.903.902v26.176h4.423V24.99c0-6.694 3.825-9.026 7.712-9.026.777 0 1.554.18 2.032.298l1.076-4.602c-.657-.239-1.853-.359-2.63-.359-4.125 0-7.233 2.452-8.129 6.277"/></g><g><path fill="#fff" d="M147.636 85.62c-5.036 0-8.476-1.868-10.473-3.436l-.11-.085-.613-3.509.757.639c3.176 2.682 6.512 3.931 10.5 3.931 5.245 0 9.053-3.302 9.053-7.853 0-4.318-2.376-6.86-8.765-9.378-6.89-2.732-9.7-5.885-9.7-10.886 0-4.389 3.34-9.113 10.672-9.113 2.405 0 4.982.647 7.08 1.773l.037.019.144.08.058.032v.008c.48.346.712.992.533 1.568-.15.483-.558.79-1.044.79-.161 0-.32-.034-.473-.098h-.018l-.071-.04-.243-.12.004-.014c-1.763-.953-4.063-1.539-6.069-1.539-5.519 0-8.032 3.387-8.032 6.535 0 3.828 2.208 6.25 7.623 8.359 6.543 2.572 10.901 5.58 10.901 11.905 0 6.142-4.833 10.431-11.75 10.431"/></g><g><path fill="#fff" d="M164.55 58.644c0-.697.565-1.264 1.259-1.264s1.26.567 1.26 1.264v1.26c1.867-1.883 5.138-3.064 8.632-3.064 8.203 0 14.389 6.212 14.389 14.448 0 8.271-6.211 14.507-14.448 14.507-3.412 0-6.52-1.068-8.514-2.895v16.205h-2.578zm2.578 21.256c2.09 2.232 5.238 3.558 8.453 3.558 6.802 0 11.93-5.231 11.93-12.17 0-6.982-5.016-12.05-11.93-12.05-3.723 0-6.903 1.796-8.453 3.608z"/></g><g><path fill="#fff" d="M210.536 81.447c-1.337 2.527-4.586 4.348-8.093 4.348-5.295 0-8.993-3.278-8.993-7.97 0-4.85 3.288-7.932 9.02-8.455l7.767-.747v-3.15c0-3.884-2.848-6.294-7.434-6.294-2.06 0-4.217.551-5.913 1.515-.182.09-.352.13-.524.13-.47 0-.865-.297-1.008-.759-.195-.627.108-1.33.685-1.606 1.81-1.04 4.24-1.619 6.819-1.619 5.953 0 9.953 3.398 9.953 8.453v14.09c0 2.777 1.772 4.147 3.431 4.504l.667.142-1.892 1.799-.185-.041c-1.72-.376-3.7-1.729-4.3-4.34zm-7.76-9.739c-4.29.379-6.748 2.631-6.748 6.18 0 3.339 2.602 5.58 6.475 5.58 3.21 0 7.734-2.381 7.734-7.68v-4.765z"/></g><g><path fill="#fff" d="M227.2 85.498c-3.041 0-5.599-.835-7.603-2.48l-.102-.085-.635-3.542.793.748c2.184 2.06 4.583 3.02 7.547 3.02 2.903 0 6.295-1.319 6.295-5.037 0-2.739-1.96-4.746-5.993-6.134-4.428-1.536-7.376-3.487-7.376-8.014 0-4.023 3.18-6.834 7.733-6.834 2.787 0 4.803.9 5.542 1.287.6.291.917 1.027.717 1.673-.148.482-.539.775-1.022.775a1.27 1.27 0 0 1-.552-.131c-1.372-.81-3.07-1.267-4.685-1.267-3.12 0-5.216 1.783-5.216 4.436 0 3.093 2.017 4.413 5.274 5.538 5.64 1.972 8.155 4.629 8.155 8.61 0 4.518-3.483 7.437-8.872 7.437"/></g><g><path fill="#fff" d="M148.362 63.618c-5.696-2.218-7.853-4.797-7.853-8.693 0-3.299 2.637-6.895 8.392-6.895 2.308 0 4.792.747 6.475 1.713l.008-.007v.012c.449.218.937.04 1.085-.435l.002-.009a1.084 1.084 0 0 0-.548-1.257v.003l-.001-.001c-1.757-.954-4.269-1.759-6.96-1.759-7.135 0-10.311 4.498-10.311 8.754 0 4.857 2.817 7.915 9.47 10.552 6.237 2.458 8.995 5.036 8.995 9.712 0 4.857-4.079 8.213-9.413 8.213-4.737 0-8.034-1.738-10.733-4.017l.42 2.398c2.219 1.74 5.576 3.358 10.252 3.358 6.356 0 11.392-3.897 11.392-10.071 0-5.816-3.658-8.813-10.672-11.571"/></g><g><path fill="#fff" d="M175.702 57.2c7.792 0 14.03 5.875 14.03 14.09 0 8.092-6.057 14.146-14.09 14.146-4.137 0-7.255-1.559-8.873-3.418v16.728h-1.859V58.645c0-.5.405-.906.9-.906s.9.407.9.906v2.151h.059c1.44-1.919 4.676-3.596 8.933-3.596zm12.17 14.09c0-7.136-5.216-12.413-12.29-12.413-3.777 0-7.135 1.8-8.813 3.837v17.327c1.86 2.039 4.976 3.777 8.813 3.777 7.074 0 12.29-5.396 12.29-12.529z"/></g><g><path fill="#fff" d="M212.456 79.382c0 3.058 2.038 4.495 3.715 4.855l-1.257 1.2c-1.918-.42-4.138-2.159-4.197-5.517-.66 3.119-4.376 5.516-8.273 5.516-4.976 0-8.634-3.058-8.634-7.612 0-5.336 4.077-7.675 8.694-8.095l8.093-.78v-3.477c0-4.376-3.357-6.654-7.793-6.654-2.346 0-4.56.694-6.09 1.564-.418.204-.873.02-1.011-.423l-.003-.008c-.138-.444.08-.967.5-1.168v-.001c1.658-.95 3.958-1.582 6.664-1.582 5.515 0 9.592 3.057 9.592 8.093zm-1.86-8.753l-7.853.72c-4.076.36-7.074 2.457-7.074 6.534 0 3.657 2.939 5.935 6.835 5.935 3.716 0 8.093-2.758 8.093-8.034z"/></g><g><path fill="#fff" d="M227.804 69.79c-3.299-1.14-5.517-2.519-5.517-5.877 0-2.936 2.4-4.795 5.576-4.795 1.902 0 3.645.594 4.842 1.301h.001c.447.218.923.06 1.07-.417l.004-.01a1.07 1.07 0 0 0-.539-1.245l-.002-.001v-.001c-1.269-.664-3.205-1.245-5.376-1.245-4.196 0-7.373 2.457-7.373 6.473 0 4.197 2.638 6.115 7.133 7.674 3.658 1.26 6.236 3.239 6.236 6.475 0 3.598-3.119 5.396-6.655 5.396-3.237 0-5.696-1.14-7.794-3.118l.42 2.339c1.678 1.38 4.016 2.398 7.374 2.398 4.737 0 8.512-2.459 8.512-7.074 0-4.257-3.117-6.596-7.912-8.273"/></g><g><path fill="#fff" d="M239.71 48.36h1.625c1.004 0 1.76.7 1.76 1.628 0 .594-.343 1.129-.907 1.432l1.53 2.135-.754.436-1.701-2.351h-.684v2.384h-.869zm1.599 2.433c.523 0 .917-.348.917-.807 0-.453-.386-.781-.917-.781h-.73v1.588z"/></g><g><path fill="#fff" d="M242.959 49.984c0 .636-.424 1.139-.98 1.377l1.536 2.145-.504.293-1.67-2.306h-.9v2.384h-.581V48.5h1.482c.98 0 1.617.69 1.617 1.484zm-.57 0c0-.53-.453-.926-1.069-.926h-.88v1.88h.88c.616 0 1.069-.425 1.069-.954z"/></g><g><path fill="#fff" d="M236.59 51.155c0-2.605 2.053-4.645 4.673-4.645 2.666 0 4.673 1.995 4.673 4.645 0 2.633-2.007 4.619-4.673 4.619-2.62 0-4.673-2.03-4.673-4.62zm4.673-3.804c-2.205 0-3.805 1.599-3.805 3.804 0 2.24 1.565 3.804 3.805 3.804s3.805-1.565 3.805-3.804c0-2.24-1.564-3.804-3.805-3.804z"/></g><g><path fill="#fff" d="M241.26 46.65c2.542 0 4.529 1.88 4.529 4.502 0 2.623-1.987 4.478-4.529 4.478-2.464 0-4.53-1.855-4.53-4.478 0-2.622 2.066-4.502 4.53-4.502zm3.957 4.502c0-2.33-1.67-3.947-3.952-3.947-2.255 0-3.952 1.616-3.952 3.947 0 2.384 1.697 3.947 3.952 3.947 2.281 0 3.952-1.563 3.952-3.947z"/></g></g></g></svg>