<svg xmlns="http://www.w3.org/2000/svg" width="299" height="75" viewBox="0 0 299 75">
    <defs>
        <linearGradient id="qxr8a" x1="37.53" x2="37.53" y1="0" y2="75" gradientUnits="userSpaceOnUse">
            <stop offset="0" stop-color="#00aad4" />
            <stop offset="1" stop-color="#1589a6" />
        </linearGradient>
    </defs>
    <g>
        <g>
            <g>
                <path fill="url(#qxr8a)" d="M72.318 66.26c-1.093 0-2.187-.103-3.264-.299a16.56 16.56 0 0 1-3.08-.864 13.62 13.62 0 0 0-2.515-.71c-.903-.164-1.82-.24-2.738-.24-.918 0-1.836.076-2.739.24a13.62 13.62 0 0 0-2.514.71c-.393.154-.79.292-1.195.412-2.013 1.383-4.257 2.456-6.584 3.237-.614-.049-1.225-.13-1.831-.24a16.653 16.653 0 0 1-3.079-.863 13.526 13.526 0 0 0-2.516-.712 15.346 15.346 0 0 0-2.738-.237c-.917 0-1.836.074-2.738.237a13.48 13.48 0 0 0-2.514.712 16.67 16.67 0 0 1-3.08.863 18.146 18.146 0 0 1-3.266.298c-1.094 0-2.19-.102-3.265-.298a16.685 16.685 0 0 1-3.079-.863 13.494 13.494 0 0 0-2.516-.712 15.235 15.235 0 0 0-2.594-.237v-2.545l-.143-.001c-.918 0-1.835.075-2.739.239-.858.157-1.702.393-2.515.71-.993.39-2.028.673-3.08.864a18.266 18.266 0 0 1-3.265.3A18.14 18.14 0 0 1 0 66.05v-3.037l.074.013c.877.153 1.767.223 2.657.223.918 0 1.837-.074 2.739-.24a13.554 13.554 0 0 0 2.516-.71 16.64 16.64 0 0 1 3.077-.862 18.295 18.295 0 0 1 3.267-.299c1.094 0 2.189.103 3.266.299 1.05.191 2.085.472 3.08.862.812.32 1.656.556 2.513.71.903.166 1.82.24 2.738.24.918 0 1.836-.074 2.739-.24a13.398 13.398 0 0 0 2.514-.71c.995-.388 2.03-.67 3.08-.862a18.28 18.28 0 0 1 3.265-.299c1.095 0 2.19.103 3.267.299 1.048.191 2.084.474 3.078.862.812.32 1.656.556 2.515.71.903.166 1.822.24 2.738.24.917 0 1.836-.074 2.739-.24a13.429 13.429 0 0 0 2.514-.71c.993-.388 2.03-.67 3.08-.862a18.28 18.28 0 0 1 3.265-.299c1.094 0 2.188.103 3.267.299 1.048.191 2.084.474 3.078.862.812.32 1.656.554 2.515.71a15.2 15.2 0 0 0 2.737.24c.893 0 1.786-.07 2.665-.225l.08-.014v3.038a18.11 18.11 0 0 1-2.745.212zM14.33 11.748c-.916 0-1.835.074-2.739.238-.858.157-1.702.394-2.514.713-.994.39-2.03.672-3.08.864a18.243 18.243 0 0 1-3.266.299c-.913 0-1.828-.071-2.731-.21V10.61l.074.013c.877.154 1.767.224 2.657.224.918 0 1.837-.074 2.739-.238a13.507 13.507 0 0 0 2.516-.712c.993-.39 2.028-.673 3.077-.865a18.272 18.272 0 0 1 3.267-.299c1.094 0 2.189.103 3.266.3a16.53 16.53 0 0 1 3.078.864c.812.318 1.656.555 2.515.712.903.164 1.82.238 2.738.238.918 0 1.836-.074 2.739-.238a13.493 13.493 0 0 0 2.514-.712 16.56 16.56 0 0 1 3.08-.865 18.256 18.256 0 0 1 3.265-.299c1.095 0 2.19.103 3.267.3a16.56 16.56 0 0 1 3.078.864c.812.32 1.656.555 2.515.712.903.164 1.822.238 2.738.238.917 0 1.836-.074 2.739-.238a13.524 13.524 0 0 0 2.514-.712 16.53 16.53 0 0 1 3.08-.865 18.256 18.256 0 0 1 3.265-.299c1.094 0 2.188.103 3.267.3a16.56 16.56 0 0 1 3.078.864c.812.32 1.656.555 2.515.712.901.164 1.82.238 2.737.238.893 0 1.786-.07 2.665-.225l.08-.013v3.041c-.908.14-1.826.212-2.745.212-1.093 0-2.187-.103-3.264-.3a16.54 16.54 0 0 1-3.08-.863 13.499 13.499 0 0 0-2.515-.713 15.327 15.327 0 0 0-2.738-.238c-.918 0-1.836.074-2.739.238a13.61 13.61 0 0 0-2.514.713c-.782.306-1.59.547-2.409.729a23.395 23.395 0 0 1 2.538 1.77l-.13.049c-.994.39-2.029.672-3.078.865a18.254 18.254 0 0 1-3.266.298c-1.094 0-2.188-.104-3.265-.298a16.53 16.53 0 0 1-3.079-.865 13.588 13.588 0 0 0-2.516-.712 15.194 15.194 0 0 0-2.738-.238c-.917 0-1.836.073-2.738.238a13.62 13.62 0 0 0-2.515.712c-.993.39-2.028.673-3.08.865a18.389 18.389 0 0 1-3.265.298c-1.094 0-2.19-.102-3.265-.298a16.674 16.674 0 0 1-3.079-.865 13.588 13.588 0 0 0-2.516-.712 15.218 15.218 0 0 0-2.594-.238v-2.283c0-.092.002-.179.006-.266zm0 8.73c-.916 0-1.835.075-2.739.239a13.62 13.62 0 0 0-2.514.71c-.994.39-2.03.673-3.08.864a18.266 18.266 0 0 1-3.266.299A18.14 18.14 0 0 1 0 22.38v-3.038l.074.013c.877.154 1.767.224 2.657.224.918 0 1.837-.074 2.74-.24a13.549 13.549 0 0 0 2.515-.708c.994-.39 2.028-.673 3.079-.865a18.267 18.267 0 0 1 3.265-.298c1.094 0 2.189.103 3.266.298 1.05.192 2.085.475 3.078.865.812.317 1.658.553 2.515.708.903.166 1.82.24 2.738.24.918 0 1.836-.074 2.739-.24a13.503 13.503 0 0 0 2.514-.708 16.56 16.56 0 0 1 3.08-.865 18.263 18.263 0 0 1 3.265-.298c1.095 0 2.19.103 3.265.298a16.48 16.48 0 0 1 3.08.865c.812.317 1.656.553 2.515.708.903.166 1.822.24 2.738.24.917 0 1.836-.074 2.739-.24a13.534 13.534 0 0 0 2.514-.708c.995-.39 2.03-.673 3.08-.865a18.28 18.28 0 0 1 3.265-.298c1.094 0 2.188.103 3.265.298 1.05.192 2.085.475 3.08.865.812.317 1.656.553 2.515.708a15.2 15.2 0 0 0 2.737.24c.893 0 1.786-.071 2.665-.226l.08-.014v3.04a18.11 18.11 0 0 1-2.745.21c-1.093 0-2.187-.102-3.264-.298a16.56 16.56 0 0 1-3.08-.864 13.62 13.62 0 0 0-2.515-.71 15.348 15.348 0 0 0-3.233-.23c.474.804.89 1.655 1.242 2.554a16.06 16.06 0 0 0-.747-.018c-.918 0-1.836.074-2.738.238-.86.157-1.703.393-2.515.712-.995.39-2.03.671-3.08.863a18.146 18.146 0 0 1-3.265.298c-1.094 0-2.188-.101-3.265-.298-.132-.024-.262-.05-.394-.076-1.831-1.653-4.467-2.547-7.586-2.547h-8.281c-.135.027-.27.054-.404.078l-.196.034v2.545a18.163 18.163 0 0 1-3.07.264c-1.094 0-2.188-.101-3.265-.298a16.573 16.573 0 0 1-3.079-.863 13.494 13.494 0 0 0-2.516-.712 15.235 15.235 0 0 0-2.594-.238V20.48zm0 8.738c-.916 0-1.835.074-2.739.24-.858.155-1.702.392-2.514.71-.994.391-2.03.675-3.08.866a18.377 18.377 0 0 1-3.266.3c-.913 0-1.828-.073-2.731-.211v-3.043l.074.013c.877.154 1.767.224 2.657.224.918 0 1.837-.074 2.74-.238a13.539 13.539 0 0 0 2.515-.712 16.53 16.53 0 0 1 3.079-.865 18.244 18.244 0 0 1 3.265-.299c1.094 0 2.189.103 3.266.299a16.53 16.53 0 0 1 3.078.865c.812.32 1.658.555 2.515.712.903.164 1.82.238 2.738.238.918 0 1.836-.074 2.739-.238a13.493 13.493 0 0 0 2.514-.712c.995-.39 2.03-.673 3.08-.865a18.24 18.24 0 0 1 3.265-.299c1.095 0 2.19.103 3.265.299 1.05.192 2.086.475 3.08.865.812.32 1.658.555 2.515.712.903.164 1.822.238 2.738.238.917 0 1.836-.074 2.739-.238a13.524 13.524 0 0 0 2.514-.712 16.56 16.56 0 0 1 3.08-.865 18.39 18.39 0 0 1 3.265-.299c1.094 0 2.188.103 3.265.299 1.05.192 2.085.475 3.08.865.812.32 1.656.555 2.515.712.901.164 1.82.238 2.737.238.893 0 1.786-.07 2.665-.225l.08-.015v3.043c-.908.14-1.826.213-2.745.213-1.093 0-2.187-.104-3.264-.299a16.544 16.544 0 0 1-3.08-.865 13.385 13.385 0 0 0-2.515-.711 12.977 12.977 0 0 0-.712-.112c.012.281.016.566.016.853v1.697a15.75 15.75 0 0 0-2.042-.13c-.918 0-1.836.075-2.738.24a13.48 13.48 0 0 0-2.515.712 16.67 16.67 0 0 1-3.08.864 18.254 18.254 0 0 1-4.148.276v-2.36l-.001-.188a18.715 18.715 0 0 1-2.381-.276 16.56 16.56 0 0 1-3.079-.865 13.43 13.43 0 0 0-2.516-.711c-.903-.166-1.82-.24-2.738-.24-.917 0-1.836.074-2.738.24-.858.155-1.703.392-2.515.71a16.53 16.53 0 0 1-3.08.866l-.195.034v2.549a18.29 18.29 0 0 1-3.07.262c-1.094 0-2.188-.101-3.265-.297a16.67 16.67 0 0 1-3.079-.864 13.48 13.48 0 0 0-2.516-.713 15.218 15.218 0 0 0-2.594-.238v-2.547zm0 8.73c-.918 0-1.835.075-2.739.239a13.62 13.62 0 0 0-2.514.71c-.994.39-2.03.673-3.08.864a18.266 18.266 0 0 1-3.266.299A18.14 18.14 0 0 1 0 39.848v-3.04l.074.014a15.26 15.26 0 0 0 2.657.225c.918 0 1.837-.074 2.74-.24a13.523 13.523 0 0 0 2.515-.71 16.64 16.64 0 0 1 3.077-.863 18.295 18.295 0 0 1 3.267-.298c1.094 0 2.189.103 3.266.298 1.05.192 2.085.474 3.078.863.812.319 1.656.554 2.515.71.903.166 1.82.24 2.738.24.918 0 1.836-.074 2.739-.24a13.509 13.509 0 0 0 2.514-.71c.995-.39 2.03-.671 3.08-.863a18.28 18.28 0 0 1 3.265-.298c1.095 0 2.19.103 3.267.298 1.049.192 2.084.473 3.078.863.812.319 1.656.554 2.515.71.903.166 1.822.24 2.738.24.917 0 1.836-.074 2.739-.24a13.54 13.54 0 0 0 2.514-.71c.993-.389 2.03-.671 3.08-.863a18.28 18.28 0 0 1 3.265-.298c1.094 0 2.188.103 3.267.298 1.048.192 2.084.474 3.078.863.812.319 1.656.554 2.515.71a15.2 15.2 0 0 0 2.737.24c.893 0 1.786-.072 2.665-.225l.08-.015v3.039a18.11 18.11 0 0 1-2.745.212c-1.093 0-2.187-.103-3.264-.299a16.56 16.56 0 0 1-3.08-.864 13.62 13.62 0 0 0-3.211-.82v2.547c-.676-.09-1.36-.13-2.042-.13-.918 0-1.836.075-2.739.238-.858.155-1.702.392-2.514.71-.995.39-2.03.672-3.08.863a18.279 18.279 0 0 1-4.148.277v-2.546c-.8-.039-1.596-.133-2.382-.275a16.546 16.546 0 0 1-3.079-.864 13.634 13.634 0 0 0-2.516-.71 15.346 15.346 0 0 0-2.738-.238c-.917 0-1.836.074-2.738.238-.858.156-1.703.392-2.515.71-.993.39-2.028.673-3.08.864l-.195.033v2.546a18.3 18.3 0 0 1-3.07.264c-1.094 0-2.19-.103-3.265-.299a16.573 16.573 0 0 1-3.079-.862 13.38 13.38 0 0 0-2.516-.71 15.09 15.09 0 0 0-2.594-.238v-2.546zm0 8.74c-.916 0-1.835.073-2.739.237-.858.157-1.702.394-2.514.712-.994.39-2.03.673-3.08.865a18.241 18.241 0 0 1-3.266.298c-.913 0-1.828-.072-2.731-.21v-3.042l.074.013c.877.154 1.767.225 2.657.225.918 0 1.837-.074 2.74-.24a13.508 13.508 0 0 0 2.515-.71c.994-.391 2.028-.675 3.079-.865a18.244 18.244 0 0 1 3.265-.299c1.094 0 2.189.103 3.266.3 1.05.19 2.085.473 3.078.863.812.318 1.656.556 2.515.711.903.166 1.82.24 2.738.24.918 0 1.836-.074 2.739-.24a13.494 13.494 0 0 0 2.514-.71 16.43 16.43 0 0 1 3.08-.865 18.108 18.108 0 0 1 3.265-.299 18.1 18.1 0 0 1 3.265.3c1.05.19 2.086.473 3.08.863.812.318 1.656.556 2.515.711.903.166 1.822.24 2.738.24.918 0 1.837-.076 2.739-.24a13.494 13.494 0 0 0 2.514-.71c.995-.391 2.03-.675 3.08-.865a18.256 18.256 0 0 1 3.265-.299c1.094 0 2.188.103 3.265.3 1.05.19 2.085.473 3.08.863.812.318 1.656.556 2.515.711.901.166 1.82.24 2.737.24.893 0 1.786-.071 2.665-.227l.08-.013v3.042a17.903 17.903 0 0 1-6.01-.086 16.56 16.56 0 0 1-3.08-.865 13.606 13.606 0 0 0-3.21-.82v2.547c-.676-.088-1.36-.129-2.042-.129-.918 0-1.836.074-2.738.24-.86.155-1.703.392-2.515.71-.993.39-2.03.673-3.08.865a18.255 18.255 0 0 1-3.265.299c-.444 0-.886-.018-1.328-.051.24-.772.387-1.616.43-2.52a18.841 18.841 0 0 1-2.369-.276 16.577 16.577 0 0 1-3.077-.865 13.653 13.653 0 0 0-2.516-.712 15.327 15.327 0 0 0-2.738-.238c-.917 0-1.836.074-2.738.238-.858.157-1.703.394-2.514.712-.994.39-2.03.673-3.08.865l-.196.033v2.55a18.29 18.29 0 0 1-3.07.264c-1.094 0-2.19-.103-3.265-.3a16.53 16.53 0 0 1-3.079-.865 13.473 13.473 0 0 0-2.516-.71 15.072 15.072 0 0 0-2.594-.239v-2.548zm0 8.733c-.916 0-1.835.074-2.739.238-.858.156-1.702.393-2.514.712-.994.39-2.03.674-3.08.864a18.243 18.243 0 0 1-3.266.3c-.913 0-1.828-.073-2.731-.211V54.28l.074.014c.877.153 1.767.223 2.657.223.918 0 1.837-.074 2.74-.238a13.544 13.544 0 0 0 2.515-.713 16.637 16.637 0 0 1 3.079-.864 18.244 18.244 0 0 1 3.265-.299c1.094 0 2.189.104 3.266.3 1.05.191 2.085.474 3.078.863.812.32 1.658.556 2.515.713.903.164 1.82.238 2.738.238.918 0 1.836-.074 2.739-.238a13.498 13.498 0 0 0 2.514-.713c.995-.389 2.03-.672 3.08-.864a18.24 18.24 0 0 1 3.265-.299c1.095 0 2.19.104 3.265.3 1.05.191 2.086.474 3.08.863.812.32 1.656.556 2.515.713.903.164 1.822.238 2.738.238.917 0 1.836-.074 2.739-.238a13.53 13.53 0 0 0 2.514-.713c.995-.389 2.03-.672 3.08-.864a18.256 18.256 0 0 1 3.265-.299c1.094 0 2.188.104 3.265.3 1.05.191 2.085.474 3.08.863.812.32 1.656.556 2.515.713.901.164 1.82.238 2.737.238.893 0 1.786-.07 2.665-.225l.08-.014v3.042c-.908.14-1.826.212-2.745.212-1.093 0-2.187-.103-3.264-.299a16.43 16.43 0 0 1-3.08-.864 13.499 13.499 0 0 0-2.515-.712 14.56 14.56 0 0 0-1.566-.196c-.27.876-.6 1.713-.984 2.507h-.188c-.918 0-1.836.072-2.738.238-.858.157-1.703.392-2.515.711-.995.39-2.03.672-3.08.865a18.254 18.254 0 0 1-3.265.298c-1.094 0-2.188-.102-3.265-.298a16.673 16.673 0 0 1-3.079-.865 13.54 13.54 0 0 0-2.516-.711 15.194 15.194 0 0 0-2.738-.238c-.917 0-1.836.072-2.738.238-.858.157-1.703.392-2.515.711-.995.39-2.028.672-3.08.865a18.254 18.254 0 0 1-3.265.298c-1.094 0-2.188-.102-3.265-.298a16.674 16.674 0 0 1-3.079-.865 13.508 13.508 0 0 0-2.516-.711 15.07 15.07 0 0 0-2.594-.238v-2.55zM75.062 4.915c-.907.14-1.825.212-2.744.212-1.093 0-2.187-.103-3.264-.297a16.544 16.544 0 0 1-3.08-.866 13.606 13.606 0 0 0-2.515-.71 15.195 15.195 0 0 0-2.738-.239c-.918 0-1.836.073-2.738.238a13.62 13.62 0 0 0-2.515.711c-.995.391-2.03.674-3.08.866a18.389 18.389 0 0 1-3.265.297c-1.094 0-2.188-.103-3.265-.297a16.53 16.53 0 0 1-3.079-.866 13.653 13.653 0 0 0-2.516-.71 15.194 15.194 0 0 0-2.738-.239c-.917 0-1.836.073-2.738.238-.858.157-1.703.394-2.514.711-.994.392-2.03.674-3.08.866a18.389 18.389 0 0 1-3.266.297c-1.094 0-2.19-.103-3.265-.297a16.56 16.56 0 0 1-3.079-.866 13.62 13.62 0 0 0-2.516-.71 15.179 15.179 0 0 0-2.737-.239c-.916 0-1.835.073-2.739.238-.858.157-1.702.394-2.514.711-.994.391-2.03.674-3.08.866a18.377 18.377 0 0 1-3.266.297c-.913 0-1.828-.072-2.731-.209V1.876l.074.013c.877.153 1.767.225 2.657.225.918 0 1.837-.074 2.739-.238a13.512 13.512 0 0 0 2.516-.713 16.4 16.4 0 0 1 3.077-.864A18.14 18.14 0 0 1 14.33 0c1.094 0 2.189.102 3.266.299 1.05.19 2.085.473 3.078.864.812.32 1.656.556 2.515.713.903.164 1.82.238 2.738.238.918 0 1.836-.074 2.739-.238a13.498 13.498 0 0 0 2.514-.713c.995-.39 2.03-.674 3.08-.864A18.256 18.256 0 0 1 37.524 0c1.095 0 2.19.102 3.267.299 1.049.19 2.084.473 3.078.864.812.32 1.656.556 2.515.713.903.164 1.822.238 2.738.238.917 0 1.836-.074 2.739-.238a13.53 13.53 0 0 0 2.514-.713c.995-.39 2.03-.674 3.08-.864A18.123 18.123 0 0 1 60.72 0c1.094 0 2.188.102 3.267.299 1.049.19 2.084.473 3.078.864.812.32 1.656.556 2.515.713.901.164 1.82.238 2.737.238.893 0 1.786-.072 2.665-.227l.08-.013zM.074 71.761c.877.154 1.767.224 2.657.224.918 0 1.837-.074 2.739-.24a13.535 13.535 0 0 0 2.516-.71c.993-.39 2.028-.673 3.077-.865a18.272 18.272 0 0 1 3.267-.299c1.094 0 2.189.103 3.266.3a16.53 16.53 0 0 1 3.078.865c.814.317 1.658.554 2.515.71.903.165 1.82.239 2.738.239.918 0 1.836-.074 2.739-.24a13.49 13.49 0 0 0 2.514-.71 16.56 16.56 0 0 1 3.08-.865 18.256 18.256 0 0 1 3.265-.299c1.095 0 2.19.103 3.267.3a16.56 16.56 0 0 1 3.078.865 13.49 13.49 0 0 0 2.515.71c.903.165 1.822.239 2.738.239.917 0 1.836-.074 2.739-.24a13.52 13.52 0 0 0 2.514-.71 16.53 16.53 0 0 1 3.08-.865 18.256 18.256 0 0 1 3.265-.299c1.094 0 2.188.103 3.267.3a16.56 16.56 0 0 1 3.078.865 13.49 13.49 0 0 0 2.515.71c.901.165 1.82.239 2.737.239.893 0 1.786-.07 2.665-.225l.08-.015v3.043c-.908.14-1.826.212-2.745.212-1.093 0-2.187-.103-3.264-.299a16.54 16.54 0 0 1-3.08-.864 13.385 13.385 0 0 0-2.515-.711c-.902-.166-1.82-.24-2.738-.24-.918 0-1.836.074-2.739.24-.858.155-1.702.392-2.514.711-.995.39-2.03.672-3.08.864a18.255 18.255 0 0 1-3.265.299c-1.094 0-2.188-.103-3.265-.299a16.556 16.556 0 0 1-3.079-.864 13.368 13.368 0 0 0-2.516-.711c-.903-.166-1.82-.24-2.738-.24-.917 0-1.836.074-2.738.24-.858.155-1.703.392-2.514.711-.994.39-2.03.672-3.08.864a18.255 18.255 0 0 1-3.266.299c-1.094 0-2.188-.103-3.265-.299a16.557 16.557 0 0 1-3.079-.864 13.368 13.368 0 0 0-2.516-.711c-.901-.166-1.82-.24-2.737-.24-.918 0-1.837.074-2.739.24-.858.155-1.702.392-2.514.711-.994.39-2.03.672-3.08.864A18.243 18.243 0 0 1 2.73 75c-.913 0-1.828-.073-2.731-.21v-3.042z" />
            </g>
            <g>
                <path fill="#fff" d="M298.595 51.29c0 2.499.102 4.845.407 6.12h-8.239l-.51-2.193h-.152c-1.78 1.99-4.273 2.756-6.968 2.756-5.086 0-8.24-3.724-8.24-7.908 0-6.732 6.002-9.692 14.496-9.743v-.203c0-1.021-.764-2.145-4.07-2.145-2.645 0-5.443.92-7.071 1.888l-1.627-5.867c1.627-.815 5.188-2.242 10.377-2.242 8.597 0 11.597 4.793 11.597 11.069zm-8.91-5.356c-3.708 0-5.84 1.072-5.84 3.27 0 1.584 1.065 2.401 2.59 2.401 1.32 0 2.741-.919 3.147-2.299.103-.408.103-.868.103-1.329zm-44.346-5.103c0-3.315-.1-6.17-.202-8.518h7.883l.407 3.163h.1c1.883-2.449 4.68-3.723 8.09-3.723 5.238 0 10.324 4.64 10.324 12.803 0 9.182-5.95 13.416-11.393 13.416-2.849 0-5.037-1.122-5.95-2.398h-.103v11.937h-9.156zm9.156 5.612c0 .56.05 1.072.153 1.53.356 1.634 1.728 3.011 3.56 3.011 2.747 0 4.425-2.398 4.425-6.02 0-3.52-1.423-6.07-4.324-6.07-1.831 0-3.406 1.479-3.711 3.264-.103.357-.103.765-.103 1.175zm-36.777 1.786c2.086 1.071 5.495 2.143 8.903 2.143 3.152 0 4.68-1.072 4.68-2.806 0-1.684-1.528-2.653-5.393-3.98-5.8-2.039-9.614-5.254-9.614-10.356 0-6.069 5.087-10.762 13.734-10.762 4.12 0 7.02.765 9.309 1.784l-1.933 7.347c-1.475-.664-4.02-1.632-7.477-1.632-2.798 0-4.324 1.02-4.324 2.55 0 1.734 1.831 2.448 6.155 4.08 6.154 2.246 8.952 5.561 8.952 10.356 0 5.917-4.627 11.02-14.648 11.02-4.121 0-8.14-1.123-10.073-2.145zm-41.25 9.182V39.046h-3.206v-6.733h3.206v-.917c0-7.041 5.952-10.766 13.992-10.766 2.75 0 6.107.562 7.786 1.48l-1.579 6.938c-1.27-.612-3.305-1.224-5.851-1.224-3.815 0-5.24 1.581-5.24 3.775v.714h15.52v25.098h-9.21V39.046h-6.209V57.41zm-15.924-36.27h9.157v36.27h-9.157zm-19.993 26.936c.305 1.988 3.203 3.11 6.407 3.11 2.39 0 4.627-.255 6.862-.97l1.17 6.122c-2.999 1.226-6.253 1.633-9.355 1.633-8.795 0-13.779-4.897-13.779-12.854 0-5.868 3.762-13.365 12.966-13.365 8.085 0 11.542 5.967 11.542 12.854 0 1.53-.203 2.857-.356 3.47zm7.38-6.225c0-1.429-.662-4.08-3.561-4.08-2.697 0-3.765 2.499-3.917 4.08zM97.47 23.488c2.951-.46 6.868-.715 10.937-.715 6.562 0 10.681 1.071 14.09 3.418 3.765 2.602 6.205 6.887 6.205 13.213 0 6.989-2.644 11.528-6 14.13-3.766 2.96-9.36 4.286-16.075 4.286-4.425 0-7.375-.306-9.157-.613zm9.207 27.046c.46.102 1.323.102 1.934.102 5.95.103 10.325-3.214 10.325-10.973 0-6.685-3.967-9.85-9.46-9.85-1.476 0-2.34.102-2.799.204z" />
            </g>
        </g>
    </g>
</svg>